<svg width="16" height="12" viewBox="0 0 16 12" fill="none" xmlns="http://www.w3.org/2000/svg">
<path d="M8.1443 6.60109L8.14428 6.60106L8.13999 6.60389C8.11181 6.62243 8.06969 6.63638 8.0235 6.63638H8.02008C7.95334 6.63638 7.91087 6.61442 7.89777 6.60361L7.89707 6.60304L1.1267 1.04508H14.909L8.45449 6.35009L8.4541 6.35041L8.16923 6.58514L8.16836 6.58571L8.1443 6.60109ZM10.0346 6.94174L14.9836 10.9022H1.01138L5.9713 6.91212L6.96879 7.7315L6.9699 7.7324C7.26305 7.97146 7.63783 8.09623 8.02235 8.09623C8.40656 8.09623 8.78155 7.97041 9.07484 7.73074L9.07574 7.72999L10.0346 6.94174ZM4.81808 5.96524L0.4 9.51994V2.33822L4.81808 5.96524ZM15.6 2.36829V9.52494L11.1884 5.99402L15.6 2.36829Z" stroke="white" stroke-width="0.8"/>
</svg>
