<svg width="11" height="17" viewBox="0 0 11 17" fill="none" xmlns="http://www.w3.org/2000/svg">
<path d="M1.9618 2.73213C3.91521 0.807906 7.08511 0.807941 9.03817 2.7321C9.90248 3.58361 10.4024 4.8339 10.4872 6.14129C10.5719 7.44871 10.2378 8.76067 9.50201 9.72714L9.49624 9.73472L9.49077 9.74251L5.5 15.4206L1.50923 9.74251L1.50376 9.73472L1.49799 9.72714C0.76221 8.76067 0.428125 7.44871 0.512846 6.14129C0.597564 4.8339 1.0975 3.58364 1.9618 2.73213ZM1.9618 2.73213L1.61092 2.37592M1.9618 2.73213L1.61092 2.37592M1.61092 2.37592C3.75895 0.259987 7.24136 0.259987 9.38908 2.37592C11.3244 4.28259 11.5423 7.87264 9.89984 10.03H1.10016C-0.542253 7.87264 -0.324394 4.28259 1.61092 2.37592ZM3.23807 6.15468C3.23807 7.42573 4.28171 8.44329 5.55356 8.44329C6.8254 8.44329 7.86905 7.42573 7.86905 6.15468C7.86905 4.88362 6.8254 3.86606 5.55356 3.86606C4.28171 3.86606 3.23807 4.88362 3.23807 6.15468Z" stroke="white"/>
</svg>
