<svg width="17" height="17" viewBox="0 0 17 17" fill="none" xmlns="http://www.w3.org/2000/svg">
<path d="M9.5029 15.4157C10.1978 15.6948 10.7853 15.87 11.2655 15.9412C11.7457 16.0124 12.0932 16.048 12.308 16.048C12.3984 16.048 12.4718 16.0452 12.5282 16.0397M9.5029 15.4157L13.5113 15.6045C13.4096 15.714 13.2768 15.8071 13.113 15.8837C12.9492 15.9603 12.7882 16.0096 12.63 16.0314M9.5029 15.4157C8.80787 15.1366 8.01976 14.7178 7.13844 14.1596L9.5029 15.4157ZM12.5282 16.0397C12.5848 16.0343 12.6187 16.0314 12.63 16.0314M12.5282 16.0397L12.48 15.5421L12.4802 15.5421M12.5282 16.0397L12.4802 15.5421M12.63 16.0314V15.5314C12.6156 15.5314 12.5983 15.5322 12.5801 15.5334M12.63 16.0314L12.5616 15.5362C12.5677 15.5353 12.5739 15.5344 12.5801 15.5334M12.5801 15.5334C12.6775 15.5179 12.7842 15.4855 12.9011 15.4308L12.9014 15.4307C13.0186 15.3759 13.0951 15.3179 13.145 15.2642L13.1546 15.2539L13.1647 15.2441L15.4176 13.078C15.4178 13.0778 15.418 13.0776 15.4182 13.0774C15.4964 13.0014 15.5159 12.9414 15.5094 12.866C15.4954 12.8167 15.4564 12.7487 15.3257 12.6694L12.1749 10.8663H12.1561L12.0396 10.7985C12.0306 10.7933 11.9759 10.7678 11.8333 10.7678C11.6857 10.7678 11.5676 10.8102 11.4588 10.9L10.5064 11.839L10.5033 11.842L10.5033 11.842C10.3999 11.9422 10.2782 11.9905 10.199 12.0161L10.1987 12.0162C10.1476 12.0327 10.044 12.065 9.93496 12.065H9.88692L9.83976 12.0559L9.62829 12.0149C9.62818 12.0149 9.62807 12.0148 9.62795 12.0148C9.41724 11.974 9.16375 11.8689 8.8913 11.7341C8.5927 11.5864 8.23822 11.3646 7.83316 11.0787L7.83309 11.0786C7.40819 10.7787 6.93585 10.3682 6.41758 9.85516C5.88851 9.35344 5.46676 8.89789 5.16175 8.4901C4.87231 8.10313 4.64587 7.75925 4.49245 7.46269C4.32092 7.14168 4.19705 6.83187 4.13933 6.53827L4.12994 6.4905V6.44181C4.12994 6.33091 4.15688 6.23064 4.18256 6.15599C4.21033 6.07528 4.26221 5.95412 4.36677 5.85282L4.71468 6.21192L4.36677 5.85282L5.19728 5.0482C5.27038 4.97738 5.31956 4.89148 5.34473 4.77567C5.36491 4.68278 5.35181 4.61955 5.31618 4.55817L5.30921 4.54616L5.30937 4.54607L3.50698 1.23318C3.46232 1.16864 3.41114 1.11668 3.35298 1.07442C3.32999 1.05772 3.30416 1.04677 3.25706 1.04677C3.1949 1.04677 3.13601 1.06464 3.0626 1.13577L0.808363 3.31972L0.79894 3.32885L0.789051 3.33748C0.733539 3.38588 0.67499 3.45881 0.619835 3.5695C0.565993 3.67755 0.534115 3.77504 0.518431 3.86287C0.515887 3.92581 0.509907 4.03373 0.502005 4.17153C0.493817 4.31432 0.509685 4.54312 0.564043 4.8749C0.614873 5.18514 0.714029 5.5687 0.867158 6.02966C1.01376 6.47098 1.2377 6.97466 1.54445 7.54244L1.54446 7.54246C1.84601 8.10067 2.24923 8.71701 2.75807 9.39221C3.2579 10.0554 3.89395 10.7577 4.6702 11.4991L4.67485 11.5035L4.67482 11.5035C5.65185 12.4609 6.5623 13.2028 7.40598 13.7372L7.40599 13.7372C8.27082 14.285 9.03111 14.6874 9.68925 14.9518L9.68926 14.9518C10.3651 15.2232 10.9123 15.3834 11.3388 15.4466C11.8173 15.5175 12.1331 15.548 12.308 15.548C12.3902 15.548 12.446 15.5454 12.4802 15.5421M12.5801 15.5334C12.5475 15.5355 12.5121 15.539 12.4846 15.5416L12.4802 15.5421" stroke="white"/>
</svg>
